<svg width="231" height="235" viewBox="0 0 231 235" fill="none" xmlns="http://www.w3.org/2000/svg">
<g clip-path="url(#clip0_48_27)">
<path d="M194.662 16.6961C216.512 34.7667 219.994 67.4512 202.44 89.719L107.142 210.634C89.5942 232.897 57.6698 236.298 35.8284 218.231C13.9827 200.162 10.5009 167.475 28.0501 145.208L123.349 24.2924C140.896 2.03159 172.823 -1.36918 194.662 16.6961Z" fill="#EBECED"/>
<path d="M75.1725 85.4284L28.0526 145.212C10.5035 167.479 13.9852 200.166 35.831 218.235C57.6726 236.304 89.5969 232.904 107.144 210.639L154.254 150.856L75.1725 85.4284Z" fill="#3B97D3"/>
<path d="M151.627 154.219L72.5611 88.8192L75.1797 85.4965L154.241 150.896L151.627 154.219Z" fill="#2086BF"/>
<path d="M88.6067 102.053L41.5744 161.731C40.5597 163.017 39.8036 164.497 39.3495 166.085C38.8953 167.674 38.7519 169.34 38.9275 170.988C39.1031 172.636 39.5942 174.235 40.3727 175.692C41.1513 177.149 42.2021 178.436 43.465 179.48C44.7273 180.524 46.1769 181.305 47.7312 181.777C49.2855 182.25 50.914 182.405 52.5237 182.233C54.1333 182.062 55.6927 181.567 57.1126 180.778C58.5325 179.989 59.7852 178.92 60.7991 177.633L107.831 117.956L88.6067 102.053Z" fill="#55A6DC"/>
<path d="M159.294 32.5074C158.031 31.4621 156.581 30.6806 155.026 30.2077C153.471 29.7348 151.841 29.5797 150.231 29.7512C148.62 29.9228 147.06 30.4176 145.639 31.2075C144.219 31.9974 142.965 33.0669 141.951 34.3547L91.2254 98.7306L110.45 114.633L161.186 50.2563C163.233 47.657 164.183 44.3274 163.828 40.9993C163.473 37.6711 161.842 34.6167 159.294 32.5074Z" fill="#EFF0F1"/>
<path d="M110.479 114.65L107.861 117.972L88.6448 102.075L91.2635 98.7525L110.479 114.65Z" fill="#4F9ED4"/>
</g>
<defs>
<clipPath id="clip0_48_27">
<rect width="209" height="214" fill="white" transform="translate(0 22.1372) rotate(-6.08016)"/>
</clipPath>
</defs>
</svg>
